<mxfile host="app.diagrams.net" agent="Mozilla/5.0 (X11; Ubuntu; Linux x86_64; rv:131.0) Gecko/20100101 Firefox/131.0" version="24.7.17">
  <diagram name="Page-1" id="ly5TcPVFj8aYqV9thFbq">
    <mxGraphModel dx="1364" dy="758" grid="1" gridSize="10" guides="1" tooltips="1" connect="1" arrows="1" fold="1" page="1" pageScale="1" pageWidth="850" pageHeight="1100" math="0" shadow="0">
      <root>
        <mxCell id="0" />
        <mxCell id="1" parent="0" />
        <mxCell id="GNYGhSVnS5105M0uUTwU-9" value="" style="edgeStyle=orthogonalEdgeStyle;rounded=0;orthogonalLoop=1;jettySize=auto;html=1;" edge="1" parent="1" source="GNYGhSVnS5105M0uUTwU-1" target="GNYGhSVnS5105M0uUTwU-8">
          <mxGeometry relative="1" as="geometry" />
        </mxCell>
        <mxCell id="GNYGhSVnS5105M0uUTwU-1" value="E" style="rounded=0;whiteSpace=wrap;html=1;fillColor=#e1d5e7;strokeColor=#9673a6;" vertex="1" parent="1">
          <mxGeometry x="120" y="200" width="120" height="80" as="geometry" />
        </mxCell>
        <mxCell id="GNYGhSVnS5105M0uUTwU-3" value="" style="edgeStyle=orthogonalEdgeStyle;rounded=0;orthogonalLoop=1;jettySize=auto;html=1;" edge="1" parent="1" source="GNYGhSVnS5105M0uUTwU-2" target="GNYGhSVnS5105M0uUTwU-1">
          <mxGeometry relative="1" as="geometry" />
        </mxCell>
        <mxCell id="GNYGhSVnS5105M0uUTwU-2" value="" style="shape=waypoint;sketch=0;fillStyle=solid;size=6;pointerEvents=1;points=[];fillColor=none;resizable=0;rotatable=0;perimeter=centerPerimeter;snapToPoint=1;" vertex="1" parent="1">
          <mxGeometry x="30" y="230" width="20" height="20" as="geometry" />
        </mxCell>
        <mxCell id="GNYGhSVnS5105M0uUTwU-4" value="m, n" style="text;html=1;align=center;verticalAlign=middle;whiteSpace=wrap;rounded=0;" vertex="1" parent="1">
          <mxGeometry x="50" y="210" width="60" height="30" as="geometry" />
        </mxCell>
        <mxCell id="GNYGhSVnS5105M0uUTwU-6" value="" style="edgeStyle=orthogonalEdgeStyle;rounded=0;orthogonalLoop=1;jettySize=auto;html=1;" edge="1" parent="1" source="GNYGhSVnS5105M0uUTwU-5" target="GNYGhSVnS5105M0uUTwU-1">
          <mxGeometry relative="1" as="geometry" />
        </mxCell>
        <mxCell id="GNYGhSVnS5105M0uUTwU-5" value="" style="shape=waypoint;sketch=0;fillStyle=solid;size=6;pointerEvents=1;points=[];fillColor=none;resizable=0;rotatable=0;perimeter=centerPerimeter;snapToPoint=1;" vertex="1" parent="1">
          <mxGeometry x="170" y="340" width="20" height="20" as="geometry" />
        </mxCell>
        <mxCell id="GNYGhSVnS5105M0uUTwU-7" value="k" style="text;html=1;align=center;verticalAlign=middle;resizable=0;points=[];autosize=1;strokeColor=none;fillColor=none;" vertex="1" parent="1">
          <mxGeometry x="190" y="300" width="30" height="30" as="geometry" />
        </mxCell>
        <mxCell id="GNYGhSVnS5105M0uUTwU-12" value="" style="edgeStyle=orthogonalEdgeStyle;rounded=0;orthogonalLoop=1;jettySize=auto;html=1;" edge="1" parent="1" source="GNYGhSVnS5105M0uUTwU-8" target="GNYGhSVnS5105M0uUTwU-11">
          <mxGeometry relative="1" as="geometry" />
        </mxCell>
        <mxCell id="GNYGhSVnS5105M0uUTwU-8" value="" style="ellipse;shape=cloud;whiteSpace=wrap;html=1;fillColor=#f8cecc;strokeColor=#b85450;" vertex="1" parent="1">
          <mxGeometry x="350" y="200" width="120" height="80" as="geometry" />
        </mxCell>
        <mxCell id="GNYGhSVnS5105M0uUTwU-10" value="E(k, m, n) = c" style="text;html=1;align=center;verticalAlign=middle;resizable=0;points=[];autosize=1;strokeColor=none;fillColor=none;" vertex="1" parent="1">
          <mxGeometry x="240" y="210" width="100" height="30" as="geometry" />
        </mxCell>
        <mxCell id="GNYGhSVnS5105M0uUTwU-18" value="" style="edgeStyle=orthogonalEdgeStyle;rounded=0;orthogonalLoop=1;jettySize=auto;html=1;" edge="1" parent="1" source="GNYGhSVnS5105M0uUTwU-11" target="GNYGhSVnS5105M0uUTwU-17">
          <mxGeometry relative="1" as="geometry" />
        </mxCell>
        <mxCell id="GNYGhSVnS5105M0uUTwU-11" value="D" style="rounded=0;whiteSpace=wrap;html=1;fillColor=#d5e8d4;strokeColor=#82b366;" vertex="1" parent="1">
          <mxGeometry x="530" y="200" width="120" height="80" as="geometry" />
        </mxCell>
        <mxCell id="GNYGhSVnS5105M0uUTwU-13" value="c, n" style="text;html=1;align=center;verticalAlign=middle;resizable=0;points=[];autosize=1;strokeColor=none;fillColor=none;" vertex="1" parent="1">
          <mxGeometry x="480" y="210" width="40" height="30" as="geometry" />
        </mxCell>
        <mxCell id="GNYGhSVnS5105M0uUTwU-14" value="" style="edgeStyle=orthogonalEdgeStyle;rounded=0;orthogonalLoop=1;jettySize=auto;html=1;" edge="1" parent="1" source="GNYGhSVnS5105M0uUTwU-15">
          <mxGeometry relative="1" as="geometry">
            <mxPoint x="590" y="280" as="targetPoint" />
          </mxGeometry>
        </mxCell>
        <mxCell id="GNYGhSVnS5105M0uUTwU-15" value="" style="shape=waypoint;sketch=0;fillStyle=solid;size=6;pointerEvents=1;points=[];fillColor=none;resizable=0;rotatable=0;perimeter=centerPerimeter;snapToPoint=1;" vertex="1" parent="1">
          <mxGeometry x="580" y="340" width="20" height="20" as="geometry" />
        </mxCell>
        <mxCell id="GNYGhSVnS5105M0uUTwU-16" value="k" style="text;html=1;align=center;verticalAlign=middle;resizable=0;points=[];autosize=1;strokeColor=none;fillColor=none;" vertex="1" parent="1">
          <mxGeometry x="600" y="300" width="30" height="30" as="geometry" />
        </mxCell>
        <mxCell id="GNYGhSVnS5105M0uUTwU-17" value="" style="shape=waypoint;sketch=0;fillStyle=solid;size=6;pointerEvents=1;points=[];fillColor=none;resizable=0;rotatable=0;perimeter=centerPerimeter;snapToPoint=1;" vertex="1" parent="1">
          <mxGeometry x="710" y="230" width="20" height="20" as="geometry" />
        </mxCell>
        <mxCell id="GNYGhSVnS5105M0uUTwU-19" value="D(k, c, n) = m" style="text;html=1;align=center;verticalAlign=middle;resizable=0;points=[];autosize=1;strokeColor=none;fillColor=none;" vertex="1" parent="1">
          <mxGeometry x="640" y="210" width="100" height="30" as="geometry" />
        </mxCell>
        <mxCell id="GNYGhSVnS5105M0uUTwU-20" value="nonce" style="text;html=1;align=center;verticalAlign=middle;resizable=0;points=[];autosize=1;strokeColor=none;fillColor=none;" vertex="1" parent="1">
          <mxGeometry x="380" y="118" width="60" height="30" as="geometry" />
        </mxCell>
        <mxCell id="GNYGhSVnS5105M0uUTwU-21" value="" style="endArrow=classic;html=1;rounded=0;exitX=0.067;exitY=0.5;exitDx=0;exitDy=0;exitPerimeter=0;entryX=0.6;entryY=0.333;entryDx=0;entryDy=0;entryPerimeter=0;" edge="1" parent="1" source="GNYGhSVnS5105M0uUTwU-20" target="GNYGhSVnS5105M0uUTwU-10">
          <mxGeometry width="50" height="50" relative="1" as="geometry">
            <mxPoint x="360" y="420" as="sourcePoint" />
            <mxPoint x="410" y="370" as="targetPoint" />
          </mxGeometry>
        </mxCell>
        <mxCell id="GNYGhSVnS5105M0uUTwU-22" value="" style="endArrow=classic;html=1;rounded=0;exitX=0.983;exitY=0.467;exitDx=0;exitDy=0;exitPerimeter=0;entryX=0.75;entryY=0.333;entryDx=0;entryDy=0;entryPerimeter=0;" edge="1" parent="1" source="GNYGhSVnS5105M0uUTwU-20" target="GNYGhSVnS5105M0uUTwU-13">
          <mxGeometry width="50" height="50" relative="1" as="geometry">
            <mxPoint x="360" y="420" as="sourcePoint" />
            <mxPoint x="410" y="370" as="targetPoint" />
          </mxGeometry>
        </mxCell>
      </root>
    </mxGraphModel>
  </diagram>
</mxfile>
